<svg data-logo="logo" xmlns="http://www.w3.org/2000/svg" viewBox="0 0 210 42">
        <g style="opacity: 1;" id="logogram" transform="translate(0, 1) rotate(0)"><path d="M40 13.4683C40.0001 10.7823 39.1891 8.1589 37.673 5.9417C36.1569 3.72451 34.0065 2.01688 31.5035 1.04252C29.0005 0.0681476 26.2615 -0.127534 23.6455 0.48109C21.0293 1.08971 18.658 2.47428 16.8421 4.45341H0V40H35.5601V23.3873C36.9557 22.139 38.0726 20.6104 38.8377 18.9012C39.6027 17.192 39.9988 15.3409 40 13.4683ZM33.1579 13.4683C33.1606 14.7553 32.7814 16.0143 32.0683 17.0858C31.3551 18.1572 30.3402 18.9931 29.1518 19.4874C27.9634 19.9819 26.6552 20.1127 25.3924 19.8631C24.1298 19.6137 22.9695 18.9953 22.0584 18.0861C21.1474 17.1769 20.5266 16.0179 20.2745 14.7557C20.0224 13.4936 20.1505 12.185 20.6424 10.9957C21.1343 9.80626 21.968 8.78957 23.0379 8.07423C24.108 7.35888 25.3661 6.97705 26.6532 6.97703C28.376 6.97703 30.0285 7.6605 31.2479 8.87745C32.4675 10.0944 33.1544 11.7455 33.1579 13.4683ZM28.7179 33.1579H6.84211V11.2955H13.5088C13.38 12.0128 13.3123 12.7397 13.3063 13.4683C13.31 17.007 14.7173 20.3997 17.2196 22.902C19.7217 25.4042 23.1144 26.8116 26.6532 26.8151C27.3451 26.8115 28.0355 26.7528 28.7179 26.6397V33.1579Z" fill="#3987D5"></path></g>
        <g style="opacity: 1;" id="logotype" transform="translate(46, 1)"><path fill="#111111" d="M23.82 13.12L8.84 13.12Q7.86 13.12 7.19 12.45Q6.53 11.79 6.53 10.81L6.53 10.81Q6.53 9.79 7.19 9.15Q7.86 8.50 8.84 8.50L8.84 8.50L23.82 8.50Q24.83 8.50 25.48 9.15Q26.13 9.79 26.13 10.81L26.13 10.81Q26.13 11.79 25.48 12.45Q24.83 13.12 23.82 13.12L23.82 13.12ZM16.33 33.35L16.33 33.35Q15.28 33.35 14.61 32.67Q13.95 31.98 13.95 30.93L13.95 30.93L13.95 10.88L18.74 10.88L18.74 30.93Q18.74 31.98 18.06 32.67Q17.38 33.35 16.33 33.35ZM30.05 33.35L30.05 33.35Q29.10 33.35 28.42 32.67Q27.74 31.98 27.74 31.00L27.74 31.00L27.74 16.93Q27.74 15.99 28.44 15.31Q29.14 14.63 30.15 14.63L30.15 14.63Q31.20 14.63 31.80 15.32Q32.39 16.02 32.39 16.97L32.39 16.97L32.39 18.58L31.73 18.20Q32.11 17.35 32.74 16.48Q33.37 15.60 34.28 15.03Q35.19 14.45 36.28 14.45L36.28 14.45Q37.40 14.45 38.08 15.06Q38.76 15.67 38.76 16.76L38.76 16.76Q38.76 17.70 38.04 18.39Q37.33 19.07 36.21 19.07L36.21 19.07Q34.88 19.07 34.04 19.56Q33.20 20.05 32.79 20.91Q32.39 21.77 32.39 22.92L32.39 22.92L32.39 31.00Q32.39 31.98 31.71 32.67Q31.03 33.35 30.05 33.35ZM44.26 33.35L44.26 33.35Q43.28 33.35 42.59 32.65Q41.91 31.95 41.91 31.00L41.91 31.00L41.91 16.93Q41.91 15.99 42.59 15.31Q43.28 14.63 44.26 14.63L44.26 14.63Q45.20 14.63 45.88 15.31Q46.57 15.99 46.57 16.93L46.57 16.93L46.57 31.00Q46.57 31.95 45.88 32.65Q45.20 33.35 44.26 33.35ZM44.22 12.84L44.22 12.84Q43.14 12.84 42.44 12.14Q41.74 11.44 41.74 10.14L41.74 10.14Q41.74 8.88 42.44 8.17Q43.14 7.45 44.22 7.45L44.22 7.45Q45.38 7.45 46.08 8.17Q46.78 8.88 46.78 10.14L46.78 10.14Q46.78 11.44 46.08 12.14Q45.38 12.84 44.22 12.84ZM61.13 33.52L61.13 33.52Q59.76 33.52 58.69 33.12Q57.63 32.72 56.84 32.00Q56.05 31.29 55.53 30.30L55.53 30.30L56.12 29.95L56.12 38.01Q56.12 39.02 55.46 39.69Q54.79 40.35 53.78 40.35L53.78 40.35Q52.80 40.35 52.13 39.69Q51.47 39.02 51.47 38.01L51.47 38.01L51.47 17.00Q51.47 15.99 52.13 15.31Q52.80 14.63 53.78 14.63L53.78 14.63Q54.79 14.63 55.47 15.32Q56.16 16.02 56.12 17.35L56.12 17.35L56.09 18.54L55.42 18.30Q56.02 16.79 57.45 15.62Q58.89 14.45 61.06 14.45L61.06 14.45Q62.98 14.45 64.45 15.25Q65.92 16.06 66.90 17.42Q67.88 18.79 68.39 20.50Q68.90 22.22 68.90 24.04L68.90 24.04Q68.90 25.89 68.39 27.59Q67.88 29.29 66.88 30.64Q65.89 31.98 64.45 32.76Q63.02 33.52 61.13 33.52ZM59.97 29.32L59.97 29.32Q61.90 29.32 63.00 27.89Q64.10 26.45 64.10 23.90L64.10 23.90Q64.10 22.25 63.63 21.08Q63.16 19.91 62.23 19.26Q61.30 18.61 59.94 18.61L59.94 18.61Q58.05 18.61 57.00 19.95Q55.95 21.27 55.95 23.86L55.95 23.86Q55.95 26.45 57.01 27.89Q58.08 29.32 59.97 29.32ZM83.53 33.52L83.53 33.52Q80.20 33.52 77.66 31.93Q75.13 30.34 73.67 27.43Q72.22 24.53 72.22 20.57L72.22 20.57Q72.22 17.74 73.04 15.43Q73.87 13.12 75.30 11.44Q76.74 9.76 78.71 8.87Q80.69 7.97 82.97 7.97L82.97 7.97Q84.44 7.97 85.87 8.34Q87.31 8.71 88.46 9.39Q89.62 10.07 90.33 11.07Q91.05 12.07 91.12 13.33L91.12 13.33Q91.19 14.31 90.61 14.96Q90.04 15.60 89.02 15.60L89.02 15.60Q88.22 15.60 87.69 15.20Q87.17 14.80 86.82 14.20L86.82 14.20Q86.40 13.40 85.66 12.84Q84.93 12.28 83.39 12.28L83.39 12.28Q81.53 12.28 80.10 13.24Q78.66 14.20 77.87 16.06Q77.09 17.91 77.09 20.68L77.09 20.68Q77.09 23.23 77.89 25.14Q78.70 27.05 80.15 28.10Q81.60 29.15 83.56 29.15L83.56 29.15Q84.79 29.15 85.75 28.73Q86.71 28.31 87.34 27.64L87.34 27.64L87.34 23.83L85.59 23.83Q84.58 23.83 83.75 23.20Q82.93 22.57 82.93 21.59L82.93 21.59Q82.93 20.61 83.77 19.98Q84.61 19.35 85.63 19.38L85.63 19.38L90.07 19.42Q91.16 19.45 91.68 20.02Q92.21 20.57 92.21 21.63L92.21 21.63L92.21 28.03Q92.21 28.52 92.12 28.87Q92.03 29.22 91.79 29.54L91.79 29.54Q90.49 31.36 88.43 32.44Q86.36 33.52 83.53 33.52ZM104.35 33.52L104.35 33.52Q101.83 33.52 99.85 32.35Q97.88 31.18 96.74 29.06Q95.60 26.95 95.60 24.07L95.60 24.07Q95.60 21.38 96.63 19.19Q97.67 17.00 99.57 15.73Q101.48 14.45 104.11 14.45L104.11 14.45Q106.07 14.45 107.62 15.18Q109.18 15.92 110.27 17.11Q111.35 18.30 111.91 19.70Q112.47 21.10 112.47 22.46L112.47 22.46Q112.47 23.80 111.82 24.56Q111.18 25.34 109.71 25.34L109.71 25.34L100.43 25.34Q100.68 26.73 101.31 27.63Q101.94 28.52 102.83 28.94Q103.72 29.36 104.81 29.36L104.81 29.36Q105.96 29.36 106.66 28.91Q107.36 28.45 107.92 27.82L107.92 27.82Q108.27 27.47 108.71 27.17Q109.15 26.88 109.85 26.88L109.85 26.88Q110.76 26.88 111.35 27.45Q111.95 28.03 111.95 29.04L111.95 29.04Q111.95 29.88 111.37 30.67Q110.79 31.46 109.76 32.11Q108.73 32.76 107.36 33.14Q106.00 33.52 104.35 33.52ZM100.43 22.11L100.43 22.11L107.82 22.11Q107.57 20.36 106.61 19.47Q105.65 18.58 104.14 18.58L104.14 18.58Q102.67 18.58 101.69 19.44Q100.71 20.29 100.43 22.11ZM118.63 33.35L118.63 33.35Q117.65 33.35 116.99 32.69Q116.32 32.02 116.32 31.00L116.32 31.00L116.32 16.93Q116.32 15.95 116.99 15.29Q117.65 14.63 118.63 14.63L118.63 14.63Q119.61 14.63 120.29 15.31Q120.98 15.99 120.98 16.93L120.98 16.93L120.98 19.07L120.03 18.65Q121.15 16.51 122.66 15.48Q124.16 14.45 126.23 14.45L126.23 14.45Q128.12 14.45 129.60 15.27Q131.09 16.09 131.93 17.70Q132.77 19.31 132.77 21.63L132.77 21.63L132.77 31.00Q132.77 32.02 132.11 32.69Q131.44 33.35 130.46 33.35L130.46 33.35Q129.45 33.35 128.78 32.69Q128.12 32.02 128.12 31.00L128.12 31.00L128.12 22.43Q128.12 20.78 127.24 19.79Q126.37 18.79 124.76 18.79L124.76 18.79Q123.57 18.79 122.73 19.30Q121.89 19.80 121.43 20.68Q120.98 21.55 120.98 22.60L120.98 22.60L120.98 31.00Q120.98 32.02 120.31 32.69Q119.65 33.35 118.63 33.35ZM139.84 33.35L139.84 33.35Q138.86 33.35 138.18 32.65Q137.50 31.95 137.50 31.00L137.50 31.00L137.50 16.93Q137.50 15.99 138.18 15.31Q138.86 14.63 139.84 14.63L139.84 14.63Q140.79 14.63 141.47 15.31Q142.15 15.99 142.15 16.93L142.15 16.93L142.15 31.00Q142.15 31.95 141.47 32.65Q140.79 33.35 139.84 33.35ZM139.81 12.84L139.81 12.84Q138.72 12.84 138.02 12.14Q137.32 11.44 137.32 10.14L137.32 10.14Q137.32 8.88 138.02 8.17Q138.72 7.45 139.81 7.45L139.81 7.45Q140.96 7.45 141.66 8.17Q142.36 8.88 142.36 10.14L142.36 10.14Q142.36 11.44 141.66 12.14Q140.96 12.84 139.81 12.84ZM154.75 33.52L154.75 33.52Q152.23 33.52 150.25 32.35Q148.28 31.18 147.14 29.06Q146.00 26.95 146.00 24.07L146.00 24.07Q146.00 21.38 147.03 19.19Q148.07 17.00 149.97 15.73Q151.88 14.45 154.51 14.45L154.51 14.45Q156.47 14.45 158.02 15.18Q159.58 15.92 160.67 17.11Q161.75 18.30 162.31 19.70Q162.87 21.10 162.87 22.46L162.87 22.46Q162.87 23.80 162.22 24.56Q161.58 25.34 160.11 25.34L160.11 25.34L150.83 25.34Q151.08 26.73 151.71 27.63Q152.34 28.52 153.23 28.94Q154.12 29.36 155.21 29.36L155.21 29.36Q156.36 29.36 157.06 28.91Q157.76 28.45 158.32 27.82L158.32 27.82Q158.67 27.47 159.11 27.17Q159.55 26.88 160.25 26.88L160.25 26.88Q161.16 26.88 161.75 27.45Q162.35 28.03 162.35 29.04L162.35 29.04Q162.35 29.88 161.77 30.67Q161.19 31.46 160.16 32.11Q159.13 32.76 157.76 33.14Q156.40 33.52 154.75 33.52ZM150.83 22.11L150.83 22.11L158.22 22.11Q157.97 20.36 157.01 19.47Q156.05 18.58 154.54 18.58L154.54 18.58Q153.07 18.58 152.09 19.44Q151.11 20.29 150.83 22.11Z"></path></g>
        
      </svg>
